<?xml version="1.0" standalone="no"?>
<!DOCTYPE svg PUBLIC "-//W3C//DTD SVG 20010904//EN"
 "http://www.w3.org/TR/2001/REC-SVG-20010904/DTD/svg10.dtd">
<svg version="1.0" xmlns="http://www.w3.org/2000/svg"
 width="1100.000000pt" height="1100.000000pt" viewBox="0 0 1100.000000 1100.000000"
 preserveAspectRatio="xMidYMid meet">
<metadata>
Created by potrace 1.14, written by Peter Selinger 2001-2017
</metadata>
<g transform="translate(0.000000,1100.000000) scale(0.100000,-0.100000)"
fill="#000000" stroke="none">
<path d="M3140 9983 c-153 -4 -389 -22 -510 -39 -526 -73 -970 -327 -1269
-724 -246 -326 -350 -618 -403 -1130 -15 -154 -24 -4270 -9 -4715 10 -302 28
-538 40 -531 3 2 7 -15 8 -37 1 -23 2 -55 3 -72 l1 -30 12 35 c10 33 11 33 15
10 5 -30 18 -40 54 -40 31 0 44 15 29 34 -9 10 -8 15 5 20 12 4 15 2 10 -9 -3
-8 -1 -15 3 -15 18 0 21 33 4 46 -16 12 -13 13 24 8 45 -7 58 7 31 34 -8 8 -9
12 -1 12 6 0 14 -6 17 -12 5 -10 7 -10 12 0 3 6 19 12 35 12 19 0 29 5 29 15
0 11 11 15 40 15 36 0 40 3 40 25 0 23 4 25 40 25 29 0 40 4 40 15 0 11 11 15
40 15 39 0 40 1 40 35 0 32 2 35 19 25 24 -12 91 -13 91 -2 0 16 37 52 54 52
27 0 18 18 -11 23 -16 2 -2 5 30 6 43 1 57 5 57 16 0 19 76 21 83 3 3 -10 12
-9 37 5 17 9 36 14 41 11 6 -3 16 -1 23 5 8 7 18 11 22 10 34 -6 48 16 17 24
-10 3 2 3 27 0 25 -3 52 -12 61 -19 8 -8 35 -14 59 -14 31 0 53 -7 77 -26 19
-14 37 -23 40 -20 4 3 1 6 -5 6 -7 0 -12 9 -12 20 0 13 5 18 15 13 9 -3 14 -8
11 -11 -3 -2 -1 -13 4 -22 11 -21 52 -16 44 5 -3 7 2 15 10 18 12 5 16 0 16
-15 0 -16 3 -19 11 -11 8 8 7 17 -1 34 -10 20 -10 22 1 11 7 -6 13 -24 14 -40
0 -15 5 -26 10 -24 6 2 9 10 9 18 -2 12 2 12 18 -3 12 -10 5 7 -17 41 -111
175 -212 468 -250 724 -45 308 -59 851 -52 1947 9 1265 25 1465 142 1820 91
279 209 470 414 675 329 328 696 481 1271 530 453 39 2447 39 2931 0 460 -37
811 -155 1098 -371 89 -68 240 -217 316 -314 198 -253 319 -564 369 -945 34
-262 41 -533 41 -1645 0 -1110 -6 -1343 -41 -1625 -39 -319 -155 -644 -308
-865 -320 -459 -799 -714 -1441 -765 -189 -15 -524 -30 -725 -32 -96 -1 -139
-4 -95 -5 44 -2 84 -8 89 -13 6 -6 33 -11 61 -12 l50 -1 -45 -7 -45 -7 43 -1
c27 -1 42 -7 42 -15 0 -7 26 -21 58 -32 88 -29 121 -45 127 -66 4 -10 17 -22
31 -25 13 -3 24 -10 24 -15 0 -5 7 -9 15 -9 9 0 18 -7 22 -15 3 -9 23 -25 44
-36 44 -22 49 -35 17 -43 -13 -2 -2 -4 25 -3 26 1 47 0 47 -4 0 -15 42 -48 55
-43 11 4 15 0 15 -16 0 -13 8 -24 20 -27 11 -3 20 -13 20 -23 0 -13 11 -21 33
-26 17 -4 26 -9 20 -11 -21 -7 -15 -17 27 -43 44 -27 49 -37 23 -42 -14 -3
-11 -7 12 -19 18 -8 34 -27 40 -45 11 -33 33 -64 43 -62 17 3 42 -16 42 -32 0
-9 9 -29 20 -43 11 -14 20 -31 20 -39 0 -7 18 -24 40 -38 27 -16 40 -32 40
-46 0 -12 7 -27 15 -34 8 -7 15 -24 15 -39 0 -20 2 -23 10 -11 7 11 9 4 8 -24
-1 -26 4 -43 16 -51 13 -10 14 -14 4 -18 -9 -4 -7 -6 4 -6 13 -1 16 -9 13 -35
l-3 -34 127 -7 c172 -10 536 0 706 20 439 51 782 192 1081 446 316 268 523
617 619 1045 62 276 59 122 63 2814 3 2499 2 2601 -34 2845 -84 575 -367 1031
-832 1342 -222 149 -508 254 -809 297 -267 39 -295 39 -2613 41 -1246 1 -2312
0 -2370 -2z m3173 -7770 c-7 -2 -19 -2 -25 0 -7 3 -2 5 12 5 14 0 19 -2 13 -5z"/>
<path d="M4364 8249 c-546 -13 -754 -44 -992 -148 -259 -112 -455 -314 -565
-581 -109 -266 -133 -510 -141 -1435 -5 -583 9 -1753 24 -1925 14 -176 46
-360 81 -465 37 -111 108 -258 156 -322 53 -71 135 -153 146 -146 6 3 7 1 4
-4 -4 -6 9 -24 29 -39 19 -16 42 -35 50 -42 12 -12 17 -12 32 0 15 12 16 11 4
-4 -9 -11 -10 -18 -2 -23 5 -3 10 -1 10 6 0 7 10 9 30 6 16 -4 32 -2 36 4 3 6
16 14 28 19 20 8 19 9 -6 9 -15 1 -30 -4 -33 -9 -3 -5 -11 -10 -18 -10 -22 0
17 28 53 38 32 10 33 11 13 17 -13 4 -23 11 -23 15 0 11 64 22 86 14 15 -4 16
-4 5 4 -11 8 -5 16 27 39 44 30 52 49 25 56 -10 3 0 6 22 7 22 1 65 4 95 5 34
2 58 -1 62 -8 6 -9 8 -9 8 1 0 16 57 16 63 0 3 -8 6 -7 6 4 1 9 -3 20 -9 23
-26 16 0 20 127 18 137 -1 193 -8 204 -25 3 -5 52 -11 109 -13 71 -3 111 -10
128 -21 16 -11 46 -16 90 -15 56 0 74 -4 106 -25 30 -20 36 -28 25 -35 -11 -7
-10 -9 4 -9 9 0 17 7 17 16 0 18 38 10 56 -12 6 -8 19 -14 28 -14 9 0 16 -4
16 -10 0 -5 7 -10 16 -10 8 0 12 -5 9 -10 -8 -13 11 -13 55 0 19 5 36 6 39 1
4 -5 15 -11 26 -13 11 -2 19 -9 18 -15 -1 -6 10 -14 25 -18 35 -8 104 -53 98
-64 -3 -4 17 -6 44 -3 38 3 50 1 50 -9 0 -8 17 -25 38 -39 l37 -24 -30 -7 -30
-7 33 -1 c17 0 32 4 32 9 0 6 6 10 13 10 16 0 19 -30 3 -31 -24 -1 -45 -7 -63
-18 -15 -9 -13 -10 15 -11 17 0 32 5 32 10 0 6 10 10 23 9 21 0 21 -1 2 -9
l-20 -9 20 -2 c11 -1 27 -2 35 -3 9 -1 16 -13 18 -28 3 -27 2 -28 -50 -29 -29
0 -47 -3 -40 -6 6 -2 10 -9 6 -14 -7 -12 1313 -11 1571 1 604 29 891 138 1145
431 190 220 271 482 301 964 16 272 23 1803 10 2250 -16 546 -35 710 -106 921
-59 179 -127 294 -247 420 -217 228 -480 335 -913 374 -311 27 -1679 38 -2431
19z m2928 -587 c79 -38 149 -110 186 -190 24 -51 27 -69 27 -167 0 -101 -2
-114 -29 -167 -125 -247 -442 -299 -634 -106 -207 208 -120 563 161 654 26 9
76 13 133 11 79 -2 100 -7 156 -35z m-1568 -456 c151 -35 264 -75 391 -138
464 -230 800 -664 905 -1169 153 -738 -203 -1492 -870 -1842 -479 -251 -1039
-259 -1524 -23 -408 199 -718 553 -862 982 -69 207 -79 272 -79 539 1 228 2
246 29 360 77 331 223 593 460 830 241 240 508 388 826 459 157 34 157 34 395
32 189 -2 222 -5 329 -30z m-2104 -3835 c0 -15 -15 -21 -38 -14 -32 8 -27 23
8 23 17 0 30 -4 30 -9z m645 -41 c3 -5 -1 -10 -9 -10 -9 0 -16 5 -16 10 0 6 4
10 9 10 6 0 13 -4 16 -10z m322 -86 c-3 -3 -12 -4 -19 -1 -8 3 -5 6 6 6 11 1
17 -2 13 -5z m240 -80 c-3 -3 -12 -4 -19 -1 -8 3 -5 6 6 6 11 1 17 -2 13 -5z"/>
<path d="M5165 6635 c-412 -75 -756 -396 -861 -803 -32 -120 -42 -310 -25
-433 14 -96 66 -260 110 -346 119 -235 360 -446 606 -531 165 -57 369 -77 535
-53 496 73 887 489 929 990 48 561 -337 1071 -889 1175 -99 19 -305 20 -405 1z"/>
<path d="M4098 3313 c12 -2 32 -2 45 0 12 2 2 4 -23 4 -25 0 -35 -2 -22 -4z"/>
<path d="M3210 3113 c0 -11 69 -57 76 -50 3 3 -4 8 -15 12 -12 3 -21 10 -21
15 0 5 -9 14 -20 20 -11 6 -20 7 -20 3z"/>
<path d="M2406 3045 c-7 -20 2 -38 15 -30 5 4 9 2 9 -3 0 -6 7 -13 16 -16 11
-4 9 3 -7 27 -12 17 -23 33 -25 35 -1 2 -4 -4 -8 -13z"/>
<path d="M3300 3056 c0 -3 14 -12 30 -21 17 -9 30 -13 30 -11 0 3 -13 12 -30
21 -16 9 -30 13 -30 11z"/>
<path d="M1020 2698 c0 -9 5 -20 10 -23 13 -8 13 5 0 25 -8 13 -10 13 -10 -2z"/>
</g>
</svg>
